<svg width="25" height="24" viewBox="0 0 25 24" fill="none" xmlns="http://www.w3.org/2000/svg">
<path d="M7.20001 18H4.65002C3.22002 18 2.5 17.28 2.5 15.85V4.15002C2.5 2.72002 3.22002 2 4.65002 2H8.95001C10.38 2 11.1 2.72002 11.1 4.15002V6" stroke="#333333" stroke-width="1.5" stroke-miterlimit="10" stroke-linecap="round" stroke-linejoin="round"/>
<path d="M17.8692 8.41998V19.58C17.8692 21.19 17.0692 22 15.4592 22H9.6192C8.0092 22 7.19922 21.19 7.19922 19.58V8.41998C7.19922 6.80998 8.0092 6 9.6192 6H15.4592C17.0692 6 17.8692 6.80998 17.8692 8.41998Z" stroke="#333333" stroke-width="1.5" stroke-miterlimit="10" stroke-linecap="round" stroke-linejoin="round"/>
<path d="M13.8984 6V4.15002C13.8984 2.72002 14.6184 2 16.0484 2H20.3484C21.7784 2 22.4984 2.72002 22.4984 4.15002V15.85C22.4984 17.28 21.7784 18 20.3484 18H17.8684" stroke="#333333" stroke-width="1.5" stroke-miterlimit="10" stroke-linecap="round" stroke-linejoin="round"/>
<path d="M10.5 11H14.5" stroke="#333333" stroke-width="1.5" stroke-miterlimit="10" stroke-linecap="round" stroke-linejoin="round"/>
<path d="M10.5 14H14.5" stroke="#333333" stroke-width="1.5" stroke-miterlimit="10" stroke-linecap="round" stroke-linejoin="round"/>
<path d="M12.5 22V19" stroke="#333333" stroke-width="1.5" stroke-miterlimit="10" stroke-linecap="round" stroke-linejoin="round"/>
</svg>
