<svg width="25" height="25" viewBox="0 0 25 25" fill="none" xmlns="http://www.w3.org/2000/svg">
<rect width="25" height="25" rx="2" fill="#F8F8FB"/>
<path d="M7.8125 20C7.29688 20 6.85562 19.8369 6.48875 19.5108C6.12187 19.1847 5.93813 18.7922 5.9375 18.3333V7.5H5V5.83333H9.6875V5H15.3125V5.83333H20V7.5H19.0625V18.3333C19.0625 18.7917 18.8791 19.1842 18.5122 19.5108C18.1453 19.8375 17.7037 20.0006 17.1875 20H7.8125ZM17.1875 7.5H7.8125V18.3333H17.1875V7.5ZM9.6875 16.6667H11.5625V9.16667H9.6875V16.6667ZM13.4375 16.6667H15.3125V9.16667H13.4375V16.6667Z" fill="#A40000"/>
</svg>
