<svg width="47" height="35" viewBox="0 0 47 35" fill="none" xmlns="http://www.w3.org/2000/svg">
<path d="M24.8438 34.7812V24.8438H31.4688L23.1875 14.9062L14.9062 24.8438H21.5312V34.7812H13.25V34.6984C12.9718 34.715 12.7067 34.7812 12.4219 34.7812C9.12739 34.7812 5.96784 33.4725 3.63828 31.143C1.30873 28.8134 0 25.6539 0 22.3594C0 15.9861 4.81969 10.7921 11.0041 10.0799C11.5464 7.24542 13.0594 4.68843 15.2829 2.84877C17.5065 1.00911 20.3016 0.00176893 23.1875 0C26.0738 0.00159551 28.8694 1.0088 31.0935 2.84843C33.3176 4.68805 34.8313 7.24513 35.3742 10.0799C41.5586 10.7921 46.3717 15.9861 46.3717 22.3594C46.3717 25.6539 45.063 28.8134 42.7334 31.143C40.4039 33.4725 37.2443 34.7812 33.9498 34.7812C33.6716 34.7812 33.4032 34.715 33.1217 34.6984V34.7812H24.8438Z" fill="#A40000"/>
</svg>
