<svg width="25" height="23" viewBox="0 0 25 23" fill="none" xmlns="http://www.w3.org/2000/svg">
<rect width="25" height="23" rx="2" fill="#F8F8FB"/>
<path d="M19.0639 11.7222C17.4725 8.78028 14.6817 7 11.5933 7C8.505 7 5.70944 8.78028 4.13222 11.7222L4 11.9442L4.12278 12.1708C5.71417 15.1128 8.505 16.8931 11.5933 16.8931C14.6817 16.8931 17.4772 15.1364 19.0639 12.1708L19.1867 11.9442L19.0639 11.7222ZM11.5933 15.925C8.93472 15.925 6.49333 14.4422 5.07667 11.9442C6.49333 9.44611 8.93472 7.96333 11.5933 7.96333C14.2519 7.96333 16.665 9.45083 18.1053 11.9442C16.665 14.4422 14.2472 15.925 11.5933 15.925Z" fill="#74788D"/>
<path d="M11.7302 15.1976C13.5193 15.1976 14.9696 13.7473 14.9696 11.9582C14.9696 10.1691 13.5193 8.71875 11.7302 8.71875C9.94107 8.71875 8.49072 10.1691 8.49072 11.9582C8.49072 13.7473 9.94107 15.1976 11.7302 15.1976Z" fill="#74788D"/>
</svg>
