<svg width="72" height="65" viewBox="0 0 72 65" fill="none" xmlns="http://www.w3.org/2000/svg">
<mask id="mask0_884_15979" style="mask-type:luminance" maskUnits="userSpaceOnUse" x="0" y="0" width="72" height="59">
<path d="M0.765625 0H71.2351V58.382H0.765625V0Z" fill="white"/>
</mask>
<g mask="url(#mask0_884_15979)">
<mask id="mask1_884_15979" style="mask-type:luminance" maskUnits="userSpaceOnUse" x="0" y="0" width="72" height="59">
<path d="M24.2194 2.03098C27.8125 0.804851 31.9237 0 35.9463 0C39.9689 0 43.8391 0.688467 47.406 1.91459C47.483 1.95393 47.5584 1.95393 47.6338 1.99164C61.0311 6.89614 70.8974 19.8459 71.0876 34.3545V58.382H0.765625V34.3725C0.955773 19.7688 10.6714 6.8191 24.2194 2.03098Z" fill="white"/>
</mask>
<g mask="url(#mask1_884_15979)">
<path d="M0.765625 0H71.0056V58.382H0.765625V0Z" fill="#1A1A1A"/>
</g>
</g>
<path d="M21.5367 43.0123H19.4779L18.2386 42.1927L19.4779 43.432H21.5367V43.8516H19.3008L17.1371 41.6813V37.262C17.1371 36.921 17.101 36.5604 17.0322 36.1801C16.9666 35.7965 16.8092 35.4703 16.5601 35.2031C16.3109 34.9376 15.9126 34.8196 15.3667 34.8491H15.3405C15.829 34.9982 16.1798 35.2589 16.3896 35.6293C16.6027 35.9965 16.7109 36.5407 16.7109 37.262V41.6813L14.5471 43.8516H6.1216L2.73828 40.488V36.7112L5.23643 32.5476H9.39346L11.3605 36.9538H6.96088C6.23963 36.9538 5.69213 36.8424 5.32167 36.6194C4.95449 36.3965 4.69549 36.0424 4.54797 35.5572V35.5769C4.52174 36.1244 4.63976 36.5243 4.90203 36.7768C5.16759 37.0259 5.49215 37.1882 5.87244 37.262C6.25602 37.3374 6.61992 37.3735 6.96088 37.3735H12.3571V34.495L16.9338 31.9116L21.5367 34.495V43.0123ZM17.5305 36.4883C17.5469 36.0736 17.5256 35.6982 17.4649 35.3605C17.4075 35.0196 17.224 34.7622 16.9141 34.5868C16.6027 34.4081 16.088 34.3704 15.3667 34.4753C15.9995 34.4885 16.4568 34.5966 16.7371 34.7966C17.0158 34.9933 17.2043 35.2409 17.301 35.5375C17.3961 35.831 17.4731 36.1473 17.5305 36.4883ZM6.96088 36.0883C6.5019 36.0883 6.11177 36.0457 5.79376 35.9572C5.47903 35.8703 5.19709 35.6998 4.94793 35.4458C5.06595 35.831 5.27577 36.1047 5.57739 36.2654C5.879 36.4276 6.33962 36.508 6.96088 36.508H10.6983L10.0819 35.1376L10.2131 36.0883H6.96088ZM15.4061 35.2687C15.6421 35.4916 15.7765 35.7638 15.8126 36.0818C15.8519 36.3965 15.8716 36.6571 15.8716 36.862V41.3076L14.1734 43.0123H6.49534L4.99383 42.1272L6.29864 43.432H14.3898L16.2912 41.5305V37.4849C16.2912 36.9702 16.2421 36.5309 16.147 36.167C16.0552 35.8047 15.8077 35.5048 15.4061 35.2687ZM8.50829 44.7564C8.8181 44.445 9.19348 44.2909 9.63606 44.2909C10.077 44.2909 10.4524 44.445 10.7638 44.7564C11.0736 45.0663 11.2294 45.4416 11.2294 45.8842C11.2294 46.3301 11.0736 46.7055 10.7638 47.012C10.4524 47.3218 10.077 47.4775 9.63606 47.4775C9.19348 47.4775 8.8181 47.3218 8.50829 47.012C8.18373 46.6874 8.02308 46.3121 8.02308 45.8842C8.02308 45.4547 8.18373 45.0794 8.50829 44.7564ZM12.1342 44.7564C12.444 44.445 12.8194 44.2909 13.262 44.2909C13.7029 44.2909 14.0783 44.445 14.3898 44.7564C14.6865 45.0663 14.8356 45.4416 14.8356 45.8842C14.8356 46.3301 14.6865 46.7055 14.3898 47.012C14.0783 47.3218 13.7029 47.4775 13.262 47.4775C12.8194 47.4775 12.444 47.3218 12.1342 47.012C11.8097 46.6874 11.649 46.3121 11.649 45.8842C11.649 45.4547 11.8097 45.0794 12.1342 44.7564ZM10.4557 46.7038C10.6032 46.5727 10.7015 46.412 10.7507 46.2252C10.8032 46.0416 10.8163 45.8613 10.7901 45.6875C10.7409 45.9104 10.6294 46.1088 10.4557 46.2842C10.2327 46.5071 9.95899 46.6202 9.63606 46.6251C9.3115 46.6333 9.03939 46.5202 8.81646 46.2842C8.64106 46.1088 8.53124 45.9039 8.48862 45.6678C8.41322 46.0645 8.52304 46.4104 8.81646 46.7038C9.05251 46.9399 9.32789 47.0579 9.64262 47.0579C9.96063 47.0579 10.2327 46.9399 10.4557 46.7038ZM14.0816 46.7038C14.2127 46.5727 14.3062 46.412 14.3635 46.2252C14.4242 46.0416 14.4422 45.8613 14.416 45.6875C14.3717 45.9104 14.2603 46.1088 14.0816 46.2842C13.8587 46.5071 13.5849 46.6202 13.262 46.6251C12.9374 46.6333 12.6653 46.5202 12.4424 46.2842C12.3408 46.1957 12.2686 46.0957 12.226 45.9826C12.1818 45.8727 12.144 45.7678 12.1145 45.6678C12.0096 46.0645 12.1178 46.4104 12.4424 46.7038C12.6784 46.9399 12.9538 47.0579 13.2685 47.0579C13.5866 47.0579 13.8587 46.9399 14.0816 46.7038Z" fill="#FFCE2D"/>
<path d="M23.6569 31.6623C23.3504 31.3394 23.1979 30.9656 23.1979 30.5411C23.1979 30.1132 23.3504 29.7346 23.6569 29.4067C23.9667 29.1018 24.3421 28.9478 24.7847 28.9478C25.2305 28.9478 25.6059 29.1018 25.9124 29.4067C26.2223 29.7182 26.378 30.0952 26.378 30.5411C26.378 30.9836 26.2223 31.3574 25.9124 31.6623C25.6059 31.9606 25.2305 32.1081 24.7847 32.1081C24.3421 32.1081 23.9667 31.9606 23.6569 31.6623ZM27.2894 31.6623C26.9615 31.3394 26.7976 30.9656 26.7976 30.5411C26.7976 30.1132 26.9615 29.7346 27.2894 29.4067C27.5943 29.1018 27.968 28.9478 28.4106 28.9478C28.8565 28.9478 29.2335 29.1018 29.5449 29.4067C29.8547 29.7182 30.0105 30.0952 30.0105 30.5411C30.0105 30.9836 29.8547 31.3574 29.5449 31.6623C29.2335 31.9606 28.8565 32.1081 28.4106 32.1081C27.968 32.1081 27.5943 31.9606 27.2894 31.6623ZM23.9716 31.3541C24.2077 31.577 24.4831 31.6885 24.7978 31.6885C25.1158 31.6885 25.3846 31.577 25.6043 31.3541C25.7518 31.2099 25.8534 31.0509 25.9059 30.8755C25.9583 30.6968 25.9682 30.5181 25.9387 30.3378C25.8944 30.5607 25.783 30.7607 25.6043 30.9345C25.3846 31.1574 25.1125 31.2738 24.7847 31.282C24.4601 31.2869 24.1896 31.1705 23.9716 30.9345C23.7913 30.7607 23.6798 30.5542 23.6372 30.3181C23.5618 30.7165 23.6733 31.0623 23.9716 31.3541ZM27.5976 31.3541C27.8336 31.577 28.109 31.6885 28.4237 31.6885C28.7417 31.6885 29.0105 31.577 29.2302 31.3541C29.4958 31.0623 29.6072 30.723 29.5646 30.3378C29.5203 30.5607 29.4089 30.7607 29.2302 30.9345C29.0105 31.1574 28.7384 31.2738 28.4106 31.282C28.086 31.2869 27.8156 31.1705 27.5976 30.9345C27.4172 30.7607 27.3058 30.5542 27.2632 30.3181C27.1615 30.7165 27.273 31.0623 27.5976 31.3541ZM28.5024 32.5475L30.8235 35.3144V43.0121H20.2539V37.3733H22.1751C22.2669 37.6847 22.4259 38.0093 22.6537 38.3502C22.8799 38.6879 23.1553 38.9436 23.4799 39.1174C23.2914 38.8387 23.075 38.4666 22.8307 38.0027C22.5849 37.5405 22.4718 36.9536 22.4898 36.2455L24.8109 32.5475H28.5024ZM27.532 37.17C27.7369 36.8159 27.7369 36.5192 27.532 36.2783C27.3254 36.034 27.0468 35.9111 26.6927 35.9111H26.5353C26.1944 35.9111 25.9157 36.034 25.7026 36.2783C25.4928 36.5192 25.4895 36.8159 25.6961 37.17C25.6961 36.934 25.7764 36.7356 25.9387 36.5733C26.0993 36.4127 26.2993 36.3307 26.5353 36.3307H26.6927C26.9288 36.3307 27.1271 36.4127 27.2894 36.5733C27.45 36.7356 27.532 36.934 27.532 37.17ZM27.0861 37.3274V37.17C27.0861 37.052 27.0484 36.9536 26.9747 36.875C26.9042 36.793 26.8107 36.7504 26.6927 36.7504H26.5353C26.4173 36.7504 26.3157 36.7963 26.2337 36.8881C26.1551 36.9766 26.1157 37.07 26.1157 37.17V37.3274C26.1157 37.4323 26.1583 37.5274 26.2468 37.6093C26.3337 37.688 26.4304 37.7273 26.5353 37.7273H26.6927C26.8107 37.7273 26.9042 37.688 26.9747 37.6093C27.0484 37.5274 27.0861 37.4323 27.0861 37.3274ZM20.2539 43.8514V43.4318H30.8235V43.8514H20.2539Z" fill="#FFCE2D"/>
<path d="M34.2545 34.8027L38.6345 33.1045V43.8511H29.5664V43.4315H38.2149V33.4782L37.7952 43.0119H29.5664V37.373H36.3134L34.2545 36.9533V34.8027ZM31.5794 47.0115C31.2548 46.687 31.0941 46.3116 31.0941 45.8837C31.0941 45.4543 31.2548 45.0789 31.5794 44.756C31.8892 44.4445 32.2645 44.2904 32.7071 44.2904C33.1481 44.2904 33.5235 44.4445 33.8349 44.756C34.1447 45.0658 34.3004 45.4412 34.3004 45.8837C34.3004 46.3296 34.1447 46.705 33.8349 47.0115C33.5235 47.3213 33.1481 47.4771 32.7071 47.4771C32.2645 47.4771 31.8892 47.3213 31.5794 47.0115ZM35.2053 47.0115C34.8807 46.687 34.7201 46.3116 34.7201 45.8837C34.7201 45.4543 34.8807 45.0789 35.2053 44.756C35.5151 44.4445 35.8905 44.2904 36.3331 44.2904C36.774 44.2904 37.1494 44.4445 37.4608 44.756C37.7575 45.0658 37.9067 45.4412 37.9067 45.8837C37.9067 46.3296 37.7575 46.705 37.4608 47.0115C37.1494 47.3213 36.774 47.4771 36.3331 47.4771C35.8905 47.4771 35.5151 47.3213 35.2053 47.0115ZM31.8875 46.7034C32.1236 46.9394 32.399 47.0574 32.7137 47.0574C33.0317 47.0574 33.3038 46.9394 33.5267 46.7034C33.6743 46.5722 33.7726 46.4116 33.8218 46.2247C33.8742 46.0411 33.8841 45.8608 33.8546 45.687C33.8103 45.91 33.7005 46.1083 33.5267 46.2837C33.3038 46.5066 33.03 46.6198 32.7071 46.6247C32.3826 46.6329 32.1105 46.5198 31.8875 46.2837C31.7121 46.1083 31.6023 45.9034 31.5597 45.6674C31.4843 46.0641 31.5941 46.4099 31.8875 46.7034ZM35.5134 46.7034C35.7495 46.9394 36.0249 47.0574 36.3396 47.0574C36.6576 47.0574 36.9297 46.9394 37.1527 46.7034C37.2838 46.5722 37.3772 46.4116 37.4346 46.2247C37.4952 46.0411 37.5133 45.8608 37.4871 45.687C37.4379 45.91 37.3264 46.1083 37.1527 46.2837C36.9297 46.5066 36.656 46.6198 36.3331 46.6247C36.0085 46.6329 35.7364 46.5198 35.5134 46.2837C35.4118 46.1952 35.3381 46.0952 35.2905 45.9821C35.2463 45.8723 35.2118 45.7674 35.1856 45.6674C35.0807 46.0641 35.1889 46.4099 35.5134 46.7034Z" fill="#FFCE2D"/>
<path d="M48.2344 43.0123H41.7562L40.2744 42.4353L41.553 43.4319H48.2344V45.4448L44.5429 48.6708H41.1333L39.6515 44.2712H43.3233L46.1559 43.8515H41.4022L39.0352 42.0156V34.7179L42.0382 32.1279H45.3363L48.2344 34.7179V43.0123ZM43.5463 35.8653C43.2053 35.8653 42.9266 35.9948 42.7135 36.2522C42.4988 36.5112 42.4972 36.8161 42.707 37.1701C42.707 36.9341 42.7889 36.7292 42.9561 36.5538C43.1266 36.3751 43.3233 36.285 43.5463 36.285H43.6971C43.9331 36.285 44.1315 36.3751 44.2937 36.5538C44.4593 36.7292 44.5429 36.9341 44.5429 37.1701C44.7478 36.8161 44.7462 36.5112 44.5363 36.2522C44.3298 35.9948 44.0511 35.8653 43.6971 35.8653H43.5463ZM44.0511 37.3931C44.1118 37.3193 44.138 37.2226 44.1298 37.1046C44.1249 36.9865 44.0856 36.8997 44.0118 36.8423L43.92 36.7505C43.7266 36.5767 43.5282 36.5767 43.3233 36.7505L43.2381 36.8423C43.1758 36.8997 43.1365 36.9865 43.1201 37.1046C43.1069 37.2226 43.1299 37.3193 43.1922 37.3931L43.3233 37.5045C43.5282 37.698 43.7266 37.698 43.92 37.5045L44.0511 37.3931ZM47.7885 44.0482L47.3689 45.0449L44.1626 47.8119H41.6448L40.8711 46.5529L41.4415 48.2315H44.3855L47.7885 45.2416V44.0482Z" fill="#FFCE2D"/>
<path d="M56.9681 33.9639L61.3677 33.0591V43.0123H46.9492V37.3735H48.654V36.3113L53.034 35.2032V36.9538L51.3947 37.3735H53.4536V34.9802L56.5484 34.3442V36.9538L55.5714 37.3735H56.9681V33.9639ZM60.9284 36.9538V33.5902L60.5087 36.9538H60.9284ZM56.1288 34.8753L55.7485 36.8424L56.1288 36.6653V34.8753ZM46.9492 43.8516V43.432H61.3677V43.8516H46.9492Z" fill="#FFCE2D"/>
<path d="M64.5813 31.7538C64.2698 32.0472 63.8944 32.1931 63.4535 32.1931C63.0109 32.1931 62.6355 32.0472 62.3257 31.7538C62.0143 31.4309 61.8602 31.0555 61.8602 30.626C61.8602 30.1982 62.0143 29.8228 62.3257 29.4982C62.6355 29.1884 63.0109 29.0327 63.4535 29.0327C63.8944 29.0327 64.2698 29.1884 64.5813 29.4982C64.8911 29.8097 65.0468 30.1851 65.0468 30.626C65.0468 31.0686 64.8911 31.444 64.5813 31.7538ZM68.2072 31.7538C67.8957 32.0472 67.5204 32.1931 67.0794 32.1931C66.6368 32.1931 66.2615 32.0472 65.9516 31.7538C65.6271 31.4309 65.4664 31.0555 65.4664 30.626C65.4664 30.1982 65.6271 29.8228 65.9516 29.4982C66.2615 29.1884 66.6368 29.0327 67.0794 29.0327C67.5204 29.0327 67.8957 29.1884 68.2072 29.4982C68.517 29.8097 68.6727 30.1851 68.6727 30.626C68.6727 31.0686 68.517 31.444 68.2072 31.7538ZM62.2995 30.4031C62.2241 30.8014 62.3356 31.1489 62.6339 31.4456C62.8699 31.6653 63.1453 31.7735 63.4601 31.7735C63.7781 31.7735 64.0502 31.6653 64.2731 31.4456C64.4173 31.2981 64.5157 31.1358 64.5682 30.9604C64.6206 30.7817 64.6304 30.6047 64.6009 30.4293C64.5567 30.649 64.4469 30.8473 64.2731 31.026C64.0502 31.2456 63.7748 31.3587 63.4469 31.3669C63.1224 31.3768 62.8519 31.262 62.6339 31.026C62.4536 30.8473 62.3421 30.6391 62.2995 30.4031ZM65.9254 30.4031C65.8238 30.8014 65.9353 31.1489 66.2598 31.4456C66.4959 31.6653 66.7713 31.7735 67.086 31.7735C67.404 31.7735 67.6761 31.6653 67.899 31.4456C68.1613 31.1489 68.2695 30.8096 68.2269 30.4293C68.1826 30.649 68.0728 30.8473 67.899 31.026C67.6761 31.2456 67.4023 31.3587 67.0794 31.3669C66.7549 31.3768 66.4827 31.262 66.2598 31.026C66.0844 30.8473 65.973 30.6391 65.9254 30.4031ZM64.778 34.8027L69.1579 33.1045V43.8511H60.0898V43.4315H68.7383V33.4782L68.3187 43.0119H60.0898V37.373H66.8368L64.778 36.9534V34.8027Z" fill="#FFCE2D"/>
<path d="M23.8747 63.9114H23.2583C23.2223 63.9114 23.1895 63.9049 23.16 63.8918C23.1289 63.8787 23.1026 63.8623 23.0813 63.8393C23.0633 63.818 23.0485 63.7918 23.0354 63.7606C23.0256 63.7262 23.0223 63.6918 23.0223 63.6557L23.0157 62.5017H22.6027C22.5453 62.5017 22.4912 62.5132 22.4387 62.5345C22.3896 62.5575 22.3469 62.587 22.3076 62.6263C22.2683 62.6624 22.2371 62.705 22.2158 62.7574C22.1929 62.8099 22.183 62.8656 22.183 62.9214L22.1896 63.4262C22.2552 63.4394 22.3224 63.4508 22.3928 63.459C22.4617 63.4639 22.5322 63.4656 22.6027 63.4656C22.6633 63.4656 22.724 63.4639 22.7863 63.459L22.8256 63.9311C22.7863 63.936 22.7469 63.9409 22.7076 63.9442C22.6715 63.9442 22.6371 63.9442 22.6027 63.9442C22.4797 63.9442 22.3568 63.9377 22.2355 63.9246C22.1175 63.9082 22.006 63.8836 21.9011 63.8524C21.8437 63.8393 21.7978 63.8115 21.7634 63.7672C21.7273 63.7246 21.7109 63.6738 21.7109 63.6164V62.9214C21.7109 62.8001 21.7322 62.6837 21.7765 62.5739C21.824 62.4657 21.888 62.3706 21.9667 62.2919C22.0486 62.2099 22.1437 62.146 22.2486 62.1018C22.3568 62.0542 22.4748 62.0296 22.6027 62.0296H23.1862C23.2256 62.0296 23.2616 62.0395 23.2977 62.0559C23.337 62.069 23.3698 62.0886 23.396 62.1149C23.4223 62.1411 23.4436 62.1722 23.4616 62.2067C23.478 62.2427 23.4878 62.2788 23.4878 62.3181L23.4944 63.4394H23.8747V63.9114ZM22.7731 61.5248C22.7731 61.4903 22.7797 61.4576 22.7928 61.4264C22.8059 61.392 22.8223 61.3641 22.8453 61.3412C22.8666 61.3199 22.8928 61.3018 22.924 61.2887C22.9535 61.2756 22.9862 61.269 23.0223 61.269C23.0567 61.269 23.0895 61.2756 23.1207 61.2887C23.1551 61.3018 23.1829 61.3199 23.2059 61.3412C23.2272 61.3641 23.2452 61.392 23.2583 61.4264C23.2715 61.4576 23.278 61.4903 23.278 61.5248C23.278 61.5608 23.2715 61.5936 23.2583 61.6231C23.2452 61.6543 23.2272 61.6805 23.2059 61.7018C23.1829 61.7247 23.1551 61.7411 23.1207 61.7542C23.0895 61.7674 23.0567 61.7739 23.0223 61.7739C22.9862 61.7739 22.9535 61.7674 22.924 61.7542C22.8928 61.7411 22.8666 61.7247 22.8453 61.7018C22.8223 61.6805 22.8059 61.6543 22.7928 61.6231C22.7797 61.5936 22.7731 61.5608 22.7731 61.5248ZM22.1765 61.5248C22.1765 61.4903 22.183 61.4576 22.1961 61.4264C22.2093 61.392 22.2256 61.3641 22.2486 61.3412C22.2748 61.3199 22.3027 61.3018 22.3338 61.2887C22.3633 61.2756 22.3961 61.269 22.4322 61.269C22.4666 61.269 22.4994 61.2756 22.5305 61.2887C22.565 61.3018 22.5928 61.3199 22.6158 61.3412C22.6371 61.3641 22.6551 61.392 22.6682 61.4264C22.6813 61.4576 22.6879 61.4903 22.6879 61.5248C22.6879 61.5608 22.6813 61.5936 22.6682 61.6231C22.6551 61.6543 22.6371 61.6805 22.6158 61.7018C22.5928 61.7247 22.565 61.7411 22.5305 61.7542C22.4994 61.7674 22.4666 61.7739 22.4322 61.7739C22.3961 61.7739 22.3633 61.7674 22.3338 61.7542C22.3027 61.7411 22.2748 61.7247 22.2486 61.7018C22.2256 61.6805 22.2093 61.6543 22.1961 61.6231C22.183 61.5936 22.1765 61.5608 22.1765 61.5248Z" fill="#1A1A1A"/>
<path d="M23.8203 63.4397H24.2465V61.2432H24.7186V63.6561C24.7186 63.661 24.7186 63.6676 24.7186 63.6757C24.7186 63.7118 24.712 63.7446 24.6989 63.7741C24.6858 63.8003 24.6678 63.8249 24.6465 63.8462C24.6235 63.8692 24.5973 63.8856 24.5678 63.8987C24.5416 63.9085 24.5121 63.9118 24.4826 63.9118H23.8203V63.4397Z" fill="#1A1A1A"/>
<path d="M26.8091 63.9116C26.778 64.0657 26.7321 64.2067 26.6714 64.3378C26.6091 64.4689 26.5288 64.582 26.4288 64.6787C26.3321 64.7787 26.2125 64.8574 26.0682 64.9148C25.9272 64.9705 25.7617 65 25.5699 65V64.5279C25.6879 64.5279 25.7879 64.5115 25.8715 64.482C25.9535 64.4509 26.0239 64.4066 26.0813 64.3509C26.1371 64.2984 26.1862 64.2362 26.2256 64.1608C26.2649 64.087 26.2977 64.0067 26.3239 63.9182C26.2616 63.928 26.201 63.9345 26.1403 63.9378C26.083 63.9427 26.0239 63.9444 25.9633 63.9444C25.901 63.9444 25.8404 63.9427 25.7797 63.9378C25.7174 63.9296 25.6568 63.9231 25.5961 63.9182C25.5387 63.91 25.4797 63.9018 25.4191 63.8919C25.3568 63.8788 25.3011 63.8641 25.2486 63.846C25.1994 63.8296 25.1584 63.8034 25.124 63.7673C25.0929 63.728 25.0781 63.6788 25.0781 63.6165V62.9215C25.0781 62.8002 25.0994 62.6838 25.1437 62.574C25.1912 62.4658 25.2552 62.3707 25.3338 62.2921C25.4158 62.2101 25.5109 62.1462 25.6158 62.1019C25.724 62.0544 25.8404 62.0298 25.9633 62.0298H26.5534C26.5928 62.0298 26.6288 62.0396 26.6649 62.056C26.7042 62.0691 26.737 62.0888 26.7632 62.115C26.7895 62.1413 26.8091 62.174 26.8222 62.2134C26.8386 62.2494 26.8485 62.2888 26.8485 62.3314C26.8485 62.4494 26.8517 62.5789 26.8616 62.7183C26.8698 62.8592 26.8747 63.0068 26.8747 63.1641C26.8747 63.2526 26.8714 63.3412 26.8681 63.4329L26.8616 63.4395H27.2222V63.9116H26.8091ZM25.9633 63.4657C26.1108 63.4657 26.2534 63.4526 26.3895 63.4264C26.3928 63.3313 26.396 63.2346 26.396 63.1379C26.396 63.0248 26.3928 62.915 26.3895 62.81C26.3846 62.7019 26.3829 62.5986 26.3829 62.5019H25.9633C25.9059 62.5019 25.8518 62.5134 25.7994 62.5347C25.7502 62.5576 25.7076 62.5871 25.6682 62.6265C25.6322 62.6625 25.6043 62.7051 25.583 62.7576C25.5601 62.81 25.5502 62.8658 25.5502 62.9215V63.4264C25.5928 63.4395 25.6322 63.4493 25.6682 63.4526C25.7027 63.4575 25.7354 63.4625 25.7666 63.4657C25.7961 63.4657 25.8272 63.4657 25.8584 63.4657H25.9633Z" fill="#1A1A1A"/>
<path d="M27.1719 63.9116V63.4395H27.5391V62.9018C27.5391 62.833 27.5473 62.7625 27.5653 62.692C27.5866 62.6232 27.6177 62.5543 27.6571 62.4888C27.6964 62.4232 27.7423 62.3625 27.7948 62.3052C27.8472 62.2445 27.9062 62.1937 27.9718 62.1544C28.0374 62.115 28.1062 62.0822 28.1816 62.056C28.2472 62.0396 28.316 62.0298 28.3914 62.0298H28.4177L29.0865 62.0363C29.1209 62.0363 29.152 62.0429 29.1783 62.056C29.2078 62.0691 29.234 62.0872 29.2569 62.1085C29.2783 62.1314 29.293 62.1544 29.3028 62.1806C29.316 62.2068 29.3225 62.238 29.3225 62.2724V63.4395H29.6569V63.9116H27.1719ZM28.0111 63.4395H28.8504V62.5084C28.7406 62.5084 28.6554 62.5084 28.5947 62.5084C28.5373 62.5052 28.4964 62.5019 28.4701 62.5019C28.4439 62.5019 28.4259 62.5019 28.4177 62.5019H28.4111C28.3587 62.5019 28.3078 62.5134 28.2603 62.5347C28.2111 62.5576 28.1685 62.5871 28.1292 62.6265C28.0931 62.6625 28.0652 62.7035 28.0439 62.751C28.021 62.8002 28.0111 62.8477 28.0111 62.8953V63.4395Z" fill="#1A1A1A"/>
<path d="M29.5977 63.4395H30.2271L29.9714 63.0461C29.9271 62.9805 29.8944 62.915 29.873 62.8494C29.855 62.7838 29.8468 62.7215 29.8468 62.6592C29.8468 62.5773 29.8632 62.4986 29.8993 62.4232C29.9337 62.3494 29.9812 62.2839 30.0435 62.2265C30.1042 62.1658 30.1779 62.1183 30.2665 62.0822C30.3533 62.0478 30.4517 62.0298 30.5615 62.0298H31.0467C31.1467 62.0298 31.2385 62.0462 31.3221 62.0757C31.409 62.1068 31.486 62.1511 31.5516 62.2068C31.6172 62.2642 31.6663 62.3314 31.7024 62.4101C31.7417 62.4888 31.7614 62.574 31.7614 62.6658C31.7614 62.7937 31.7188 62.9199 31.6368 63.0461L31.3811 63.4395H32.0106V63.9116H29.5977V63.4395ZM30.791 63.4395H30.8172L31.2369 62.7904C31.2664 62.7428 31.2828 62.6986 31.2828 62.6592C31.2828 62.633 31.2762 62.6117 31.2631 62.5937C31.25 62.5724 31.2319 62.5543 31.2106 62.5412C31.1877 62.5281 31.1615 62.5199 31.132 62.515C31.1057 62.5068 31.0762 62.5019 31.0467 62.5019H30.5615C30.5254 62.5019 30.4959 62.5068 30.4697 62.515C30.4435 62.5248 30.4189 62.5347 30.3976 62.5478C30.3746 62.5609 30.3582 62.5789 30.3451 62.6002C30.332 62.6183 30.3255 62.6379 30.3255 62.6592C30.3255 62.6986 30.3402 62.7428 30.3714 62.7904L30.791 63.4395Z" fill="#1A1A1A"/>
<path d="M31.9648 63.4397H32.391V61.2432H32.8631V63.6561C32.8631 63.661 32.8631 63.6676 32.8631 63.6757C32.8631 63.7118 32.8566 63.7446 32.8435 63.7741C32.8303 63.8003 32.8123 63.8249 32.791 63.8462C32.7681 63.8692 32.7418 63.8856 32.7123 63.8987C32.6861 63.9085 32.6566 63.9118 32.6271 63.9118H31.9648V63.4397Z" fill="#1A1A1A"/>
<path d="M34.1848 63.9118H33.516C33.48 63.9118 33.4472 63.9085 33.4177 63.8987C33.3915 63.8856 33.3669 63.8692 33.3456 63.8462C33.3226 63.8249 33.3062 63.8003 33.2931 63.7741C33.28 63.7446 33.2734 63.7118 33.2734 63.6757C33.2734 63.6676 33.2751 63.661 33.28 63.6561V61.2432H33.7521V63.4397H34.1848V63.9118Z" fill="#1A1A1A"/>
<path d="M34.1328 63.4396H34.7492V62.1021H35.2212V63.656C35.2245 63.6609 35.2278 63.6675 35.2278 63.6757C35.2278 63.7118 35.2212 63.7445 35.2081 63.774C35.195 63.8003 35.177 63.8249 35.1557 63.8462C35.1327 63.8691 35.1065 63.8855 35.077 63.8986C35.0508 63.9085 35.0196 63.9117 34.9852 63.9117H34.1328V63.4396ZM34.4475 64.5084C34.4475 64.4723 34.4541 64.4379 34.4672 64.4035C34.4803 64.3724 34.4967 64.3461 34.5197 64.3248C34.5459 64.3019 34.5738 64.2855 34.6049 64.2724C34.6344 64.2592 34.6672 64.2527 34.7033 64.2527C34.7377 64.2527 34.7705 64.2592 34.8016 64.2724C34.8311 64.2855 34.8573 64.3019 34.8803 64.3248C34.9065 64.3461 34.9262 64.3724 34.9393 64.4035C34.9524 64.4379 34.959 64.4723 34.959 64.5084C34.959 64.5428 34.9524 64.5756 34.9393 64.6068C34.9262 64.6363 34.9065 64.6625 34.8803 64.6854C34.8573 64.7068 34.8311 64.7248 34.8016 64.7379C34.7705 64.7543 34.7377 64.7641 34.7033 64.7641C34.6672 64.7641 34.6344 64.7543 34.6049 64.7379C34.5738 64.7248 34.5459 64.7068 34.5197 64.6854C34.4967 64.6625 34.4803 64.6363 34.4672 64.6068C34.4541 64.5756 34.4475 64.5428 34.4475 64.5084Z" fill="#1A1A1A"/>
<path d="M38.8423 63.9114H37.5637C37.3965 63.9114 37.2556 63.8885 37.1375 63.8393C37.0228 63.7918 36.9294 63.7279 36.8556 63.6492C36.7851 63.5672 36.7327 63.4721 36.6982 63.3672C36.6671 63.2623 36.6523 63.1558 36.6523 63.0459C36.6523 62.9853 36.6556 62.9246 36.6655 62.8624C36.6786 62.8017 36.6917 62.7427 36.7048 62.6853C36.7179 62.6296 36.7327 62.5771 36.7507 62.528C36.772 62.4755 36.7933 62.4296 36.8163 62.3903L37.2359 62.6066C37.2048 62.664 37.1785 62.7312 37.1572 62.8099C37.1392 62.8886 37.131 62.9705 37.131 63.0525C37.131 63.105 37.1343 63.1558 37.1441 63.2033C37.1572 63.2476 37.1769 63.2869 37.2031 63.3213C37.2326 63.3574 37.2752 63.3853 37.3277 63.4066C37.3834 63.4295 37.4556 63.4394 37.5441 63.4394C37.5474 63.4394 37.5539 63.4394 37.5637 63.4394H37.8654C37.8293 63.3705 37.8031 63.2951 37.7867 63.2164C37.7686 63.1377 37.7604 63.0574 37.7604 62.9738C37.7604 62.8558 37.7768 62.7411 37.8129 62.6263C37.8522 62.5132 37.908 62.4132 37.9834 62.3247C38.0571 62.2329 38.1489 62.1608 38.2588 62.1083C38.367 62.0559 38.4948 62.0296 38.6391 62.0296H39.2161C39.2587 62.0296 39.298 62.0395 39.3341 62.0559C39.3734 62.069 39.4062 62.0919 39.4324 62.1214C39.4587 62.1477 39.4783 62.1804 39.4914 62.2198C39.5078 62.2558 39.5177 62.2952 39.5177 62.3378V63.4394H39.8521V63.9114H38.8423ZM38.2719 63.1836C38.2981 63.2541 38.3407 63.3148 38.403 63.3672C38.4637 63.4164 38.5423 63.4394 38.6391 63.4394H39.0456V62.5017H38.6391C38.5686 62.5017 38.5079 62.5181 38.4555 62.5476C38.4063 62.5739 38.3653 62.6099 38.3309 62.6525C38.2997 62.6968 38.2752 62.7476 38.2588 62.8033C38.2407 62.8607 38.2325 62.9181 38.2325 62.9738C38.2325 63.0099 38.2342 63.0443 38.2391 63.0787C38.2473 63.1148 38.2588 63.1492 38.2719 63.1836ZM38.1276 61.5248C38.1276 61.4903 38.1342 61.4576 38.1473 61.4264C38.1604 61.392 38.1768 61.3641 38.1998 61.3412C38.2211 61.3199 38.2473 61.3018 38.2784 61.2887C38.3079 61.2756 38.3407 61.269 38.3768 61.269C38.4112 61.269 38.444 61.2756 38.4751 61.2887C38.5096 61.3018 38.5374 61.3199 38.5604 61.3412C38.5817 61.3641 38.5997 61.392 38.6128 61.4264C38.6259 61.4576 38.6325 61.4903 38.6325 61.5248C38.6325 61.5608 38.6259 61.5936 38.6128 61.6231C38.5997 61.6543 38.5817 61.6805 38.5604 61.7018C38.5374 61.7247 38.5096 61.7411 38.4751 61.7542C38.444 61.7674 38.4112 61.7739 38.3768 61.7739C38.3407 61.7739 38.3079 61.7674 38.2784 61.7542C38.2473 61.7411 38.2211 61.7247 38.1998 61.7018C38.1768 61.6805 38.1604 61.6543 38.1473 61.6231C38.1342 61.5936 38.1276 61.5608 38.1276 61.5248ZM38.7177 61.5248C38.7177 61.4903 38.7243 61.4576 38.7374 61.4264C38.7505 61.392 38.7669 61.3641 38.7899 61.3412C38.8112 61.3199 38.8374 61.3018 38.8686 61.2887C38.8981 61.2756 38.9341 61.269 38.9735 61.269C39.0079 61.269 39.0407 61.2756 39.0718 61.2887C39.1013 61.3018 39.1275 61.3199 39.1505 61.3412C39.1767 61.3641 39.1964 61.392 39.2095 61.4264C39.2226 61.4576 39.2292 61.4903 39.2292 61.5248C39.2292 61.5608 39.2226 61.5936 39.2095 61.6231C39.1964 61.6543 39.1767 61.6805 39.1505 61.7018C39.1275 61.7247 39.1013 61.7411 39.0718 61.7542C39.0407 61.7674 39.0079 61.7739 38.9735 61.7739C38.9341 61.7739 38.8981 61.7674 38.8686 61.7542C38.8374 61.7411 38.8112 61.7247 38.7899 61.7018C38.7669 61.6805 38.7505 61.6543 38.7374 61.6231C38.7243 61.5936 38.7177 61.5608 38.7177 61.5248Z" fill="#1A1A1A"/>
<path d="M39.8047 63.4396H40.5981V62.1021H41.0702V63.656C41.0702 63.6609 41.0702 63.6675 41.0702 63.6757C41.0702 63.7118 41.0636 63.7445 41.0505 63.774C41.0406 63.8003 41.0259 63.8249 41.0046 63.8462C40.9816 63.8691 40.9554 63.8855 40.9259 63.8986C40.8948 63.9085 40.8636 63.9117 40.8341 63.9117H39.8047V63.4396ZM40.4407 64.515C40.4407 64.4789 40.4473 64.4461 40.4604 64.4166C40.4735 64.3855 40.4899 64.3576 40.5128 64.3314C40.5341 64.3084 40.5604 64.292 40.5915 64.2789C40.621 64.2658 40.6538 64.2592 40.6899 64.2592C40.7243 64.2592 40.7571 64.2658 40.7882 64.2789C40.8226 64.292 40.8505 64.3084 40.8735 64.3314C40.8948 64.3576 40.9128 64.3855 40.9259 64.4166C40.939 64.4461 40.9456 64.4789 40.9456 64.515C40.9456 64.5543 40.939 64.5887 40.9259 64.6199C40.9128 64.6494 40.8948 64.6756 40.8735 64.6986C40.8505 64.7199 40.8226 64.7379 40.7882 64.751C40.7571 64.7641 40.7243 64.7707 40.6899 64.7707C40.6538 64.7707 40.621 64.7641 40.5915 64.751C40.5604 64.7379 40.5341 64.7199 40.5128 64.6986C40.4899 64.6756 40.4735 64.6494 40.4604 64.6199C40.4473 64.5887 40.4407 64.5543 40.4407 64.515ZM39.844 64.515C39.844 64.4789 39.8506 64.4461 39.8637 64.4166C39.8768 64.3855 39.8932 64.3576 39.9162 64.3314C39.9424 64.3084 39.9702 64.292 40.0014 64.2789C40.0309 64.2658 40.0637 64.2592 40.0997 64.2592C40.1342 64.2592 40.167 64.2658 40.1981 64.2789C40.2325 64.292 40.2604 64.3084 40.2833 64.3314C40.3046 64.3576 40.3227 64.3855 40.3358 64.4166C40.3489 64.4461 40.3555 64.4789 40.3555 64.515C40.3555 64.5543 40.3489 64.5887 40.3358 64.6199C40.3227 64.6494 40.3046 64.6756 40.2833 64.6986C40.2604 64.7199 40.2325 64.7379 40.1981 64.751C40.167 64.7641 40.1342 64.7707 40.0997 64.7707C40.0637 64.7707 40.0309 64.7641 40.0014 64.751C39.9702 64.7379 39.9424 64.7199 39.9162 64.6986C39.8932 64.6756 39.8768 64.6494 39.8637 64.6199C39.8506 64.5887 39.844 64.5543 39.844 64.515Z" fill="#1A1A1A"/>
<path d="M43.1724 63.9116C43.1413 64.0657 43.0954 64.2067 43.0347 64.3378C42.9724 64.4689 42.8921 64.582 42.7921 64.6787C42.6954 64.7787 42.5757 64.8574 42.4315 64.9148C42.2905 64.9705 42.125 65 41.9332 65V64.5279C42.0512 64.5279 42.1512 64.5115 42.2348 64.482C42.3167 64.4509 42.3872 64.4066 42.4446 64.3509C42.5003 64.2984 42.5495 64.2362 42.5889 64.1608C42.6282 64.087 42.661 64.0067 42.6872 63.9182C42.6249 63.928 42.5643 63.9345 42.5036 63.9378C42.4462 63.9427 42.3872 63.9444 42.3266 63.9444C42.2643 63.9444 42.2036 63.9427 42.143 63.9378C42.0807 63.9296 42.02 63.9231 41.9594 63.9182C41.902 63.91 41.843 63.9018 41.7824 63.8919C41.7201 63.8788 41.6643 63.8641 41.6119 63.846C41.5627 63.8296 41.5217 63.8034 41.4873 63.7673C41.4562 63.728 41.4414 63.6788 41.4414 63.6165V62.9215C41.4414 62.8002 41.4627 62.6838 41.507 62.574C41.5545 62.4658 41.6184 62.3707 41.6971 62.2921C41.7791 62.2101 41.8742 62.1462 41.9791 62.1019C42.0873 62.0544 42.2036 62.0298 42.3266 62.0298H42.9167C42.956 62.0298 42.9921 62.0396 43.0282 62.056C43.0675 62.0691 43.1003 62.0888 43.1265 62.115C43.1527 62.1413 43.1724 62.174 43.1855 62.2134C43.2019 62.2494 43.2117 62.2888 43.2117 62.3314C43.2117 62.4494 43.215 62.5789 43.2249 62.7183C43.2331 62.8592 43.238 63.0068 43.238 63.1641C43.238 63.2526 43.2347 63.3412 43.2314 63.4329L43.2249 63.4395H43.5855V63.9116H43.1724ZM42.3266 63.4657C42.4741 63.4657 42.6167 63.4526 42.7528 63.4264C42.7561 63.3313 42.7593 63.2346 42.7593 63.1379C42.7593 63.0248 42.7561 62.915 42.7528 62.81C42.7479 62.7019 42.7462 62.5986 42.7462 62.5019H42.3266C42.2692 62.5019 42.2151 62.5134 42.1627 62.5347C42.1135 62.5576 42.0709 62.5871 42.0315 62.6265C41.9955 62.6625 41.9676 62.7051 41.9463 62.7576C41.9233 62.81 41.9135 62.8658 41.9135 62.9215V63.4264C41.9561 63.4395 41.9955 63.4493 42.0315 63.4526C42.0659 63.4575 42.0987 63.4625 42.1299 63.4657C42.1594 63.4657 42.1905 63.4657 42.2217 63.4657H42.3266Z" fill="#1A1A1A"/>
<path d="M45.3252 63.9117V63.7544C45.3071 63.8035 45.2793 63.8429 45.2399 63.8724C45.2006 63.8986 45.1547 63.9117 45.1022 63.9117H44.3548V63.7544C44.3416 63.8035 44.3121 63.8429 44.2695 63.8724C44.2302 63.8986 44.1843 63.9117 44.1318 63.9117H43.5352V63.4396H43.8958V62.1021H44.3679V63.4396H44.8596V62.1021H45.3383V63.4396H45.83V62.1021H46.3021V63.4396H46.6628V63.9117H45.3252Z" fill="#1A1A1A"/>
<path d="M46.625 63.9114V63.4394H47.0709V62.1018H47.543V63.4394H47.9429V63.9114H46.625ZM46.6906 61.5248C46.6906 61.4903 46.6971 61.4576 46.7102 61.4264C46.7234 61.392 46.7397 61.3641 46.7627 61.3412C46.784 61.3199 46.8102 61.3018 46.8414 61.2887C46.8709 61.2756 46.9037 61.269 46.9397 61.269C46.9791 61.269 47.0135 61.2756 47.0446 61.2887C47.0741 61.3018 47.1004 61.3199 47.1233 61.3412C47.1495 61.3641 47.1692 61.392 47.1823 61.4264C47.1954 61.4576 47.202 61.4903 47.202 61.5248C47.202 61.5608 47.1954 61.5936 47.1823 61.6231C47.1692 61.6543 47.1495 61.6805 47.1233 61.7018C47.1004 61.7247 47.0741 61.7411 47.0446 61.7542C47.0135 61.7674 46.9791 61.7739 46.9397 61.7739C46.9037 61.7739 46.8709 61.7674 46.8414 61.7542C46.8102 61.7411 46.784 61.7247 46.7627 61.7018C46.7397 61.6805 46.7234 61.6543 46.7102 61.6231C46.6971 61.5936 46.6906 61.5608 46.6906 61.5248ZM47.2807 61.5248C47.2807 61.4903 47.2872 61.4576 47.3004 61.4264C47.3135 61.392 47.3299 61.3641 47.3528 61.3412C47.379 61.3199 47.4069 61.3018 47.438 61.2887C47.4676 61.2756 47.5003 61.269 47.5364 61.269C47.5708 61.269 47.6036 61.2756 47.6348 61.2887C47.6643 61.3018 47.6905 61.3199 47.7134 61.3412C47.7397 61.3641 47.7593 61.392 47.7724 61.4264C47.7856 61.4576 47.7921 61.4903 47.7921 61.5248C47.7921 61.5608 47.7856 61.5936 47.7724 61.6231C47.7593 61.6543 47.7397 61.6805 47.7134 61.7018C47.6905 61.7247 47.6643 61.7411 47.6348 61.7542C47.6036 61.7674 47.5708 61.7739 47.5364 61.7739C47.5003 61.7739 47.4676 61.7674 47.438 61.7542C47.4069 61.7411 47.379 61.7247 47.3528 61.7018C47.3299 61.6805 47.3135 61.6543 47.3004 61.6231C47.2872 61.5936 47.2807 61.5608 47.2807 61.5248Z" fill="#1A1A1A"/>
<path d="M47.9023 63.9118V63.4397H48.3351V61.2432H48.8072V63.4397H49.2137V63.9118H47.9023Z" fill="#1A1A1A"/>
<path d="M49.1719 63.4397H49.5981V61.2432H50.0702V63.6561C50.0702 63.661 50.0702 63.6676 50.0702 63.6757C50.0702 63.7118 50.0636 63.7446 50.0505 63.7741C50.0374 63.8003 50.0193 63.8249 49.998 63.8462C49.9751 63.8692 49.9489 63.8856 49.9194 63.8987C49.8931 63.9085 49.8636 63.9118 49.8341 63.9118H49.1719V63.4397Z" fill="#1A1A1A"/>
<path d="M52.8711 62.3472L70.8138 62.3472" stroke="#FFDB15" stroke-width="2.97715"/>
<path d="M0.765625 62.3472L18.7084 62.3472" stroke="#FFDB15" stroke-width="2.97715"/>
</svg>
